<mxfile host="app.diagrams.net" agent="Mozilla/5.0 (Macintosh; Intel Mac OS X 10_15_7) AppleWebKit/537.36 (KHTML, like Gecko) Chrome/126.0.0.0 Safari/537.36" version="24.7.6">
  <diagram name="Page-1" id="VfbWDMCZy954-cEO6F-5">
    <mxGraphModel dx="2652" dy="782" grid="1" gridSize="10" guides="1" tooltips="1" connect="1" arrows="1" fold="1" page="1" pageScale="1" pageWidth="850" pageHeight="1100" math="0" shadow="0">
      <root>
        <mxCell id="0" />
        <mxCell id="1" parent="0" />
        <mxCell id="fnrdZJ78n1oojoUYS6qY-1" value="Login" style="whiteSpace=wrap;html=1;aspect=fixed;" vertex="1" parent="1">
          <mxGeometry x="90" y="110" width="80" height="80" as="geometry" />
        </mxCell>
        <mxCell id="fnrdZJ78n1oojoUYS6qY-2" value="Access Token" style="whiteSpace=wrap;html=1;aspect=fixed;" vertex="1" parent="1">
          <mxGeometry x="-40" y="50" width="80" height="80" as="geometry" />
        </mxCell>
        <mxCell id="fnrdZJ78n1oojoUYS6qY-3" value="Logout" style="whiteSpace=wrap;html=1;aspect=fixed;" vertex="1" parent="1">
          <mxGeometry x="100" y="580" width="80" height="80" as="geometry" />
        </mxCell>
        <mxCell id="fnrdZJ78n1oojoUYS6qY-4" value="User Registration" style="whiteSpace=wrap;html=1;aspect=fixed;" vertex="1" parent="1">
          <mxGeometry x="90" y="220" width="80" height="80" as="geometry" />
        </mxCell>
        <mxCell id="fnrdZJ78n1oojoUYS6qY-6" style="edgeStyle=orthogonalEdgeStyle;rounded=0;orthogonalLoop=1;jettySize=auto;html=1;entryX=0;entryY=0.5;entryDx=0;entryDy=0;exitX=1;exitY=0.5;exitDx=0;exitDy=0;" edge="1" parent="1" source="fnrdZJ78n1oojoUYS6qY-5" target="fnrdZJ78n1oojoUYS6qY-1">
          <mxGeometry relative="1" as="geometry" />
        </mxCell>
        <mxCell id="fnrdZJ78n1oojoUYS6qY-14" style="edgeStyle=orthogonalEdgeStyle;rounded=0;orthogonalLoop=1;jettySize=auto;html=1;entryX=0;entryY=0.5;entryDx=0;entryDy=0;" edge="1" parent="1" source="fnrdZJ78n1oojoUYS6qY-5" target="fnrdZJ78n1oojoUYS6qY-8">
          <mxGeometry relative="1" as="geometry" />
        </mxCell>
        <mxCell id="fnrdZJ78n1oojoUYS6qY-5" value="Mobile UI" style="ellipse;whiteSpace=wrap;html=1;aspect=fixed;" vertex="1" parent="1">
          <mxGeometry x="-150" y="170" width="80" height="80" as="geometry" />
        </mxCell>
        <mxCell id="fnrdZJ78n1oojoUYS6qY-7" style="edgeStyle=orthogonalEdgeStyle;rounded=0;orthogonalLoop=1;jettySize=auto;html=1;exitX=0.5;exitY=1;exitDx=0;exitDy=0;entryX=0;entryY=0.65;entryDx=0;entryDy=0;entryPerimeter=0;" edge="1" parent="1" source="fnrdZJ78n1oojoUYS6qY-5" target="fnrdZJ78n1oojoUYS6qY-4">
          <mxGeometry relative="1" as="geometry" />
        </mxCell>
        <mxCell id="fnrdZJ78n1oojoUYS6qY-8" value="Web Server" style="whiteSpace=wrap;html=1;aspect=fixed;" vertex="1" parent="1">
          <mxGeometry x="490" y="80" width="210" height="210" as="geometry" />
        </mxCell>
        <mxCell id="fnrdZJ78n1oojoUYS6qY-9" value="Web Framework" style="ellipse;whiteSpace=wrap;html=1;aspect=fixed;" vertex="1" parent="1">
          <mxGeometry x="600" y="100" width="80" height="80" as="geometry" />
        </mxCell>
        <mxCell id="fnrdZJ78n1oojoUYS6qY-10" value="NoSQL Database (PRODUCTS)" style="shape=cylinder3;whiteSpace=wrap;html=1;boundedLbl=1;backgroundOutline=1;size=15;" vertex="1" parent="1">
          <mxGeometry x="620" y="360" width="60" height="80" as="geometry" />
        </mxCell>
        <mxCell id="fnrdZJ78n1oojoUYS6qY-11" value="Oracle DB&lt;br&gt;(USERS)" style="shape=cylinder3;whiteSpace=wrap;html=1;boundedLbl=1;backgroundOutline=1;size=15;" vertex="1" parent="1">
          <mxGeometry x="100" y="350" width="60" height="80" as="geometry" />
        </mxCell>
        <mxCell id="fnrdZJ78n1oojoUYS6qY-12" style="edgeStyle=orthogonalEdgeStyle;rounded=0;orthogonalLoop=1;jettySize=auto;html=1;entryX=1;entryY=0;entryDx=0;entryDy=52.5;entryPerimeter=0;" edge="1" parent="1" source="fnrdZJ78n1oojoUYS6qY-1" target="fnrdZJ78n1oojoUYS6qY-11">
          <mxGeometry relative="1" as="geometry">
            <Array as="points">
              <mxPoint x="250" y="150" />
              <mxPoint x="250" y="403" />
            </Array>
          </mxGeometry>
        </mxCell>
        <mxCell id="fnrdZJ78n1oojoUYS6qY-13" style="edgeStyle=orthogonalEdgeStyle;rounded=0;orthogonalLoop=1;jettySize=auto;html=1;entryX=1;entryY=0;entryDx=0;entryDy=15;entryPerimeter=0;" edge="1" parent="1" source="fnrdZJ78n1oojoUYS6qY-4" target="fnrdZJ78n1oojoUYS6qY-11">
          <mxGeometry relative="1" as="geometry" />
        </mxCell>
        <mxCell id="fnrdZJ78n1oojoUYS6qY-15" style="edgeStyle=orthogonalEdgeStyle;rounded=0;orthogonalLoop=1;jettySize=auto;html=1;exitX=0.5;exitY=1;exitDx=0;exitDy=0;entryX=0;entryY=0;entryDx=0;entryDy=15;entryPerimeter=0;" edge="1" parent="1" source="fnrdZJ78n1oojoUYS6qY-8" target="fnrdZJ78n1oojoUYS6qY-10">
          <mxGeometry relative="1" as="geometry" />
        </mxCell>
      </root>
    </mxGraphModel>
  </diagram>
</mxfile>
